<svg xmlns="http://www.w3.org/2000/svg" fill="none" viewBox="0 0 100 30"><rect width="59" height="17" x="20.5" y="6.5" stroke="#A1A1AA" rx="1.5"/><path fill="#71717A" d="M32.144 18v-5.602h1.777c.542 0 .97.119 1.285.356.318.237.477.546.477.926 0 .317-.09.593-.27.828-.18.234-.428.4-.746.5v.015c.386.045.693.188.922.43.232.24.348.552.348.938 0 .479-.19.867-.567 1.164-.377.297-.854.445-1.43.445h-1.796Zm.925-4.855v1.593h.602c.323 0 .576-.075.758-.226.185-.154.277-.37.277-.649 0-.479-.32-.718-.96-.718h-.677Zm0 2.34v1.773h.793c.347 0 .614-.08.801-.238.19-.162.285-.383.285-.665 0-.58-.402-.87-1.207-.87h-.672ZM40.447 18h-.906v-.633h-.015c-.264.485-.672.727-1.227.727-.945 0-1.418-.568-1.418-1.703V14h.906v2.297c0 .719.278 1.078.832 1.078a.835.835 0 0 0 .66-.297c.175-.198.262-.457.262-.777V14h.906v4Zm3.373-.043c-.177.089-.41.133-.699.133-.776 0-1.164-.373-1.164-1.117V14.71h-.668V14h.668v-.926l.906-.258V14h.957v.71h-.957v2c0 .238.043.407.13.509.085.101.228.152.429.152a.623.623 0 0 0 .398-.133v.719Zm2.971 0c-.177.089-.41.133-.7.133-.775 0-1.163-.373-1.163-1.117V14.71h-.668V14h.668v-.926l.906-.258V14h.957v.71h-.957v2c0 .238.043.407.129.509.086.101.229.152.43.152a.623.623 0 0 0 .398-.133v.719Zm2.588.137c-.617 0-1.11-.186-1.48-.559-.368-.375-.551-.87-.551-1.488 0-.672.191-1.197.574-1.574.385-.378.903-.567 1.554-.567.625 0 1.112.184 1.461.551.35.367.524.876.524 1.527 0 .638-.189 1.15-.567 1.536-.375.382-.88.574-1.515.574Zm.043-3.465c-.354 0-.634.124-.84.371-.206.247-.309.588-.309 1.023 0 .42.105.75.313.993.208.24.487.359.836.359.357 0 .63-.119.82-.355.193-.237.29-.575.29-1.012 0-.44-.097-.78-.29-1.02-.19-.24-.463-.36-.82-.36ZM56.028 18h-.906v-2.254c0-.747-.264-1.121-.793-1.121a.864.864 0 0 0-.684.313c-.18.205-.27.466-.27.78V18h-.91v-4h.91v.664h.016c.3-.505.732-.758 1.297-.758.435 0 .767.142.996.426.23.281.344.689.344 1.223V18Z"/><g clip-path="url(#a)"><path stroke="#71717A" stroke-linecap="round" stroke-linejoin="round" stroke-width=".667" d="M64.312 16.167a.668.668 0 0 0-.479-.48l-2.045-.527a.167.167 0 0 1 0-.32l2.045-.528a.666.666 0 0 0 .48-.479l.527-2.045a.166.166 0 0 1 .32 0l.528 2.045a.666.666 0 0 0 .479.48l2.045.526a.167.167 0 0 1 0 .322l-2.045.527a.666.666 0 0 0-.48.479l-.527 2.045a.167.167 0 0 1-.32 0l-.528-2.045Z"/></g><defs><clipPath id="a"><path fill="#fff" d="M61 11h8v8h-8z"/></clipPath></defs></svg>